<?xml version="1.0" encoding="utf-8"?>
<!-- Generator: Adobe Illustrator 16.0.0, SVG Export Plug-In . SVG Version: 6.00 Build 0)  -->
<!DOCTYPE svg PUBLIC "-//W3C//DTD SVG 1.1//EN" "http://www.w3.org/Graphics/SVG/1.1/DTD/svg11.dtd">
<svg version="1.1" xmlns="http://www.w3.org/2000/svg" xmlns:xlink="http://www.w3.org/1999/xlink" x="0px" y="0px"
	 width="633.744px" height="104.7px" viewBox="0 0 633.744 104.7" enable-background="new 0 0 633.744 104.7" xml:space="preserve">
<g id="Layer_1">
	<text transform="matrix(1 0 0 1 162.5 109.7002)" display="none" font-family="'Sullivan-Fill'" font-size="150">HACKUCI</text>
	
		<text transform="matrix(0.9714 -0.2375 0.2375 0.9714 567.0508 134.6108)" display="none" fill="#FEE300" font-family="'Webdings'" font-size="50" letter-spacing="-2">~</text>
	<g>
		<polygon fill="#FEE300" points="17.85,104.7 21.084,104.7 21.084,101.466 		"/>
		<line fill="#FEE300" x1="21.084" y1="101.466" x2="21.084" y2="104.7"/>
		<polygon fill="#FEE300" points="12.75,104.7 16.5,104.7 21.084,100.116 21.084,96.366 		"/>
		<line fill="#FEE300" x1="21.084" y1="96.366" x2="21.084" y2="100.116"/>
		<polygon fill="#FEE300" points="2.7,104.7 6.45,104.7 21.084,90.066 21.084,86.316 		"/>
		<line fill="#FEE300" x1="21.084" y1="86.316" x2="21.084" y2="90.066"/>
		<polygon fill="#FEE300" points="7.65,104.7 11.4,104.7 21.084,95.016 21.084,91.266 		"/>
		<line fill="#FEE300" x1="21.084" y1="91.266" x2="21.084" y2="95.016"/>
		<line fill="#FEE300" x1="51.417" y1="104.7" x2="51.417" y2="83.7"/>
		<polygon fill="#FEE300" points="70.5,83.7 51.45,64.65 51.45,67.35 67.8,83.7 65.4,83.7 51.45,69.75 51.45,72.45 62.7,83.7 
			60.3,83.7 51.45,74.85 51.45,77.55 57.6,83.7 55.2,83.7 51.45,79.95 51.45,82.65 52.5,83.7 51.417,83.7 51.417,104.7 72.5,104.7 
			72.5,83.7 		"/>
		<line fill="#FEE300" x1="72.5" y1="83.7" x2="72.5" y2="104.7"/>
		<line fill="#FEE300" x1="21" y1="-0.3" x2="21" y2="1.35"/>
		<line fill="#FEE300" x1="21" y1="3.75" x2="21" y2="6.45"/>
		<line fill="#FEE300" x1="21" y1="13.95" x2="21" y2="16.65"/>
		<line fill="#FEE300" x1="21" y1="19.05" x2="21" y2="20.7"/>
		<polyline fill="#FEE300" points="51.583,12.917 51.583,8.917 51.45,8.85 51.45,9.3 		"/>
		<polyline fill="#FEE300" points="51.583,18.018 51.583,14.017 51.45,13.95 51.45,14.4 		"/>
		<polyline fill="#FEE300" points="51.583,7.817 51.583,3.883 51.45,3.75 51.45,4.2 		"/>
		<line fill="#FEE300" x1="51.583" y1="2.717" x2="51.583" y2="-0.3"/>
		<line fill="#FEE300" x1="72.438" y1="13.663" x2="72.438" y2="17.413"/>
		<line fill="#FEE300" x1="72.438" y1="-0.3" x2="72.438" y2="2.16"/>
		<line fill="#FEE300" x1="0.001" y1="104.7" x2="0.001" y2="102.299"/>
		<line fill="#FEE300" x1="0.001" y1="100.949" x2="0.001" y2="97.199"/>
		<line fill="#FEE300" x1="21.084" y1="83.7" x2="21.084" y2="84.966"/>
		<path fill="#FEE300" d="M72.438,20.763v-2L72,19.2l-0.75-0.6l1.188-1.188v-3.75L72,14.1l-0.75-0.6l1.188-1.188v-3.75L72,9
			l-0.75-0.6l1.188-1.188v-3.6L72,4.05L71.25,3.3l1.188-1.14V-0.3H70.05l0.6,0.6l-1.2,1.2l-0.6-0.75L69.9-0.3h-4.95l0.6,0.6
			l-1.2,1.2l-0.6-0.75L64.8-0.3h-4.95l0.6,0.6l-1.2,1.2l-0.6-0.75L59.7-0.3h-4.8l0.45,0.6l-1.2,1.2l-0.6-0.75L54.6-0.3h-3.017v3.017
			L52.2,2.1l0.6,0.75l-1.05,1.2l-0.167-0.167v3.935L52.2,7.2l0.6,0.75L51.75,9l-0.167-0.083v4.001L52.2,12.3l0.6,0.6l-1.05,1.2
			l-0.167-0.083v4.001L52.2,17.4l0.6,0.6l-1.05,1.2l-0.167-0.083v1.666v-1.666L51.45,19.05v0.45v1.2v1.05L71.4,41.7h-2.25L51.45,24
			v2.7l15,15h-2.4l-12.6-12.6v2.7l9.9,9.9h-2.4l-7.5-7.5v2.7l4.8,4.8h-2.4l-2.4-2.4v2.4H21v-21v-1.65L1.658-0.3H0v1.084L19.95,20.7
			H17.7L0,2.933v2.6L15,20.7h-2.4L0,8.067v2.9L9.9,20.7H7.5L0,13.117v2.7L4.8,20.7H2.4L0,18.217V20.7v63l0.001,1.949v-1.866v1.866
			L1.95,83.7H3.3l-3.299,3.299v3.75L7.05,83.7H8.4l-8.399,8.399v3.75L12.15,83.7h1.35L0.001,97.199v3.75L17.25,83.7h1.35
			L0.001,102.299v2.401H1.35l19.734-19.734V83.7H21v-21h30.9l20.55,20.55v-2.7L54.6,62.7H57l15.45,15.45v-2.7L59.7,62.7h2.25
			l10.5,10.5v-2.7l-7.8-7.8h2.4l5.4,5.4v-2.7l-2.7-2.7h2.4l0.3,0.3V40.05L53.1,20.7H54l0.75-0.75l0.6,0.6v0.15h0.15l16.95,16.95
			v-2.7L58.2,20.7h0.75l0.9-0.75l0.6,0.6L60.3,20.7h0.3l11.85,11.85v-2.7L63.3,20.7h0.75l0.9-0.75l0.6,0.6L65.4,20.7h0.3l6.75,6.75
			v-2.7L68.4,20.7h0.75l0.75-0.75l0.75,0.6L70.5,20.7h0.3l1.65,1.65V20.7l-0.013-1.938V20.763z M54.15,16.65l-0.6-0.6l1.2-1.2
			l0.6,0.6L54.15,16.65z M54.15,11.55l-0.6-0.6l1.2-1.2l0.6,0.6L54.15,11.55z M54.15,6.6l-0.6-0.75l1.2-1.2l0.6,0.75L54.15,6.6z
			 M56.7,19.2l-0.6-0.6l1.2-1.2l0.6,0.6L56.7,19.2z M56.7,14.1l-0.6-0.6l1.2-1.2l0.6,0.6L56.7,14.1z M56.7,9l-0.6-0.6l1.2-1.2
			l0.6,0.75L56.7,9z M56.7,4.05L56.1,3.3l1.2-1.2l0.6,0.75L56.7,4.05z M59.25,16.65l-0.6-0.6l1.2-1.2l0.6,0.6L59.25,16.65z
			 M59.25,11.55l-0.6-0.6l1.2-1.2l0.6,0.6L59.25,11.55z M59.25,6.6l-0.6-0.75l1.2-1.2l0.6,0.75L59.25,6.6z M61.8,19.2l-0.6-0.6
			l1.2-1.2L63,18L61.8,19.2z M61.8,14.1l-0.6-0.6l1.2-1.2l0.6,0.6L61.8,14.1z M61.8,9l-0.6-0.6l1.2-1.2L63,7.95L61.8,9z M61.8,4.05
			L61.2,3.3l1.2-1.2L63,2.85L61.8,4.05z M64.35,16.65l-0.6-0.6l1.2-1.2l0.6,0.6L64.35,16.65z M64.35,11.55l-0.6-0.6l1.2-1.2l0.6,0.6
			L64.35,11.55z M64.35,6.6l-0.6-0.75l1.2-1.2l0.6,0.75L64.35,6.6z M66.9,19.2l-0.6-0.6l1.2-1.2l0.6,0.6L66.9,19.2z M66.9,14.1
			l-0.6-0.6l1.2-1.2l0.6,0.6L66.9,14.1z M66.9,9l-0.6-0.6l1.2-1.2l0.6,0.75L66.9,9z M66.9,4.05L66.3,3.3l1.2-1.2l0.6,0.75L66.9,4.05
			z M69.45,16.65l-0.6-0.6l1.05-1.2l0.75,0.6L69.45,16.65z M69.45,11.55l-0.6-0.6l1.05-1.2l0.75,0.6L69.45,11.55z M69.45,6.6
			l-0.6-0.75l1.05-1.2l0.75,0.75L69.45,6.6z"/>
		<line fill="#FEE300" x1="0.001" y1="90.749" x2="0.001" y2="86.999"/>
		<line fill="#FEE300" x1="0.001" y1="95.849" x2="0.001" y2="92.099"/>
		<line fill="#FEE300" x1="72.438" y1="8.562" x2="72.438" y2="12.312"/>
		<line fill="#FEE300" x1="72.438" y1="3.613" x2="72.438" y2="7.213"/>
		<line fill="#FEE300" x1="21" y1="8.85" x2="21" y2="11.55"/>
		<polygon fill="#FEE300" points="19.35,-0.3 21,1.35 21,-0.3 		"/>
		<polygon fill="#FEE300" points="6.75,-0.3 4.05,-0.3 21,16.65 21,13.95 		"/>
		<polygon fill="#FEE300" points="16.95,-0.3 14.25,-0.3 21,6.45 21,3.75 		"/>
		<polygon fill="#FEE300" points="11.85,-0.3 9.15,-0.3 21,11.55 21,8.85 		"/>
		<line fill="#FEE300" x1="188.029" y1="93.971" x2="188.901" y2="96.849"/>
		<polygon fill="#FEE300" points="177.299,104.7 181.049,104.7 188.901,96.849 188.029,93.971 		"/>
		<polygon fill="#FEE300" points="182.399,104.7 186.149,104.7 190.087,100.763 189.215,97.885 		"/>
		<line fill="#FEE300" x1="189.215" y1="97.885" x2="190.087" y2="100.763"/>
		<polygon fill="#FEE300" points="187.5,104.7 191.25,104.7 191.273,104.677 190.401,101.799 		"/>
		<line fill="#FEE300" x1="190.401" y1="101.799" x2="191.273" y2="104.677"/>
		<line fill="#FEE300" x1="186.843" y1="90.057" x2="187.715" y2="92.935"/>
		<polygon fill="#FEE300" points="172.2,104.7 175.95,104.7 187.715,92.935 186.843,90.057 		"/>
		<path fill="#FEE300" d="M118.71,102.39l-0.698,2.311h0.038 M120.917,95.083l-1.957,6.479 M123.149,87.9l-0.045-0.057l-1.778,5.884
			 M124.356,83.7l-0.697,2.309"/>
		<line fill="#FEE300" x1="167.377" y1="98.122" x2="166.507" y2="95.242"/>
		<line fill="#FEE300" x1="168.561" y1="102.039" x2="167.69" y2="99.159"/>
		<line fill="#FEE300" x1="166.194" y1="94.206" x2="165.324" y2="91.326"/>
		<path fill="#FEE300" d="M184.917,83.701l0.461,1.521L184.95,83.7l-25.2-84h-32.1l-25.2,84h-0.012l-1.489,4.949l0.601,0.601
			l-1.061,0.928l-1.882,6.258L99,96.75l-0.697,0.697l-2.045,6.8l0.192,0.154l-0.3,0.3h3.75l0.9-0.9l0.75,0.6l-0.3,0.3H105l0.9-0.9
			l0.6,0.6l-0.3,0.3h3.75l1.05-0.9l0.6,0.6l-0.3,0.3h3.75l1.05-0.9l0.6,0.6l-0.3,0.3h1.612l0.698-2.311l-0.661,0.661l-0.6-0.6
			l1.2-1.2l0.311,0.311l1.957-6.479L120.6,95.4l-0.6-0.6l1.2-1.2l0.127,0.127l1.778-5.884l-0.555-0.693l1.05-1.2l0.059,0.059
			l0.697-2.309h-0.006l3.15-10.5h0.45l21-21h-3.75l-16.35,16.35l0.6-1.95l14.4-14.4h-3.75l-9,9.15l0.45-1.95l7.2-7.2H135l-1.8,1.8
			l10.05-33.3h0.9l9.45,31.5h-3.3l-21,21h3.75l20.7-20.7l0.3,1.05l-19.65,19.65h3.75l16.8-16.8l0.3,1.05l-15.9,15.75h3.75L156,60.3
			l0.3,1.05L144.45,73.2h3.75l9-9l0.3,1.05l-7.95,7.95h3.75l5.1-5.1l0.3,1.05l-4.05,4.05h3.75l1.2-1.2l3.45,11.7h-0.03l0.808,2.673
			L166.5,83.7h1.35l-3.709,3.709l0.87,2.88L171.6,83.7h1.35l-7.626,7.626l0.87,2.88L176.7,83.7h1.35l-11.542,11.542l0.871,2.88
			L181.799,83.7h1.35L167.69,99.159l0.871,2.879l16.817-16.817L184.917,83.701z M97.799,103.05l-0.75-0.6l1.2-1.2l0.75,0.6
			L97.799,103.05z M100.35,100.5l-0.75-0.6l1.2-1.2l0.75,0.6L100.35,100.5z M100.35,95.4l-0.75-0.6l1.2-1.2l0.75,0.6L100.35,95.4z
			 M102.899,103.05l-0.75-0.6l1.2-1.2l0.75,0.6L102.899,103.05z M102.899,97.95l-0.75-0.6l1.2-1.2l0.75,0.6L102.899,97.95z
			 M102.899,92.85l-0.75-0.6l1.2-1.2l0.75,0.6L102.899,92.85z M102.899,87.9l-0.75-0.75l1.2-1.2l0.75,0.75L102.899,87.9z
			 M105.45,100.5l-0.75-0.6l1.2-1.2l0.6,0.6L105.45,100.5z M105.45,95.4l-0.75-0.6l1.2-1.2l0.6,0.6L105.45,95.4z M105.45,90.3
			l-0.75-0.6l1.2-1.2l0.6,0.75L105.45,90.3z M105.45,85.35l-0.75-0.75l0.9-0.9h0.6l0.3,0.45L105.45,85.35z M107.85,103.05l-0.6-0.6
			l1.2-1.2l0.6,0.6L107.85,103.05z M107.85,97.95l-0.6-0.6l1.2-1.2l0.6,0.6L107.85,97.95z M107.85,92.85l-0.6-0.6l1.2-1.2l0.6,0.6
			L107.85,92.85z M107.85,87.9l-0.6-0.75l1.2-1.2l0.6,0.75L107.85,87.9z M110.399,100.5l-0.6-0.6l1.2-1.2l0.6,0.6L110.399,100.5z
			 M110.399,95.4l-0.6-0.6l1.2-1.2l0.6,0.6L110.399,95.4z M110.399,90.3l-0.6-0.6l1.2-1.2l0.6,0.75L110.399,90.3z M110.399,85.35
			l-0.6-0.75l0.9-0.9h0.6l0.3,0.45L110.399,85.35z M112.95,103.05l-0.6-0.6l1.2-1.2l0.6,0.6L112.95,103.05z M112.95,97.95l-0.6-0.6
			l1.2-1.2l0.6,0.6L112.95,97.95z M112.95,92.85l-0.6-0.6l1.2-1.2l0.6,0.6L112.95,92.85z M112.95,87.9l-0.6-0.75l1.2-1.2l0.6,0.75
			L112.95,87.9z M115.5,100.5l-0.6-0.6l1.2-1.2l0.6,0.6L115.5,100.5z M115.5,95.4l-0.6-0.6l1.2-1.2l0.6,0.6L115.5,95.4z M115.5,90.3
			l-0.6-0.6l1.2-1.2l0.6,0.75L115.5,90.3z M115.5,85.35l-0.6-0.75l0.9-0.9h0.6l0.3,0.45L115.5,85.35z M118.049,97.95l-0.6-0.6
			l1.2-1.2l0.6,0.6L118.049,97.95z M118.049,92.85l-0.6-0.6l1.2-1.2l0.6,0.6L118.049,92.85z M118.049,87.9l-0.6-0.75l1.2-1.2
			l0.6,0.75L118.049,87.9z M120.6,90.3l-0.6-0.6l1.2-1.2l0.6,0.75L120.6,90.3z M120.6,85.35L120,84.6l0.9-0.9h0.45l0.45,0.45
			L120.6,85.35z"/>
		<line fill="#FEE300" x1="165.01" y1="90.29" x2="164.14" y2="87.41"/>
		<line fill="#FEE300" x1="163.827" y1="86.373" x2="163.019" y2="83.7"/>
		<path fill="#FEE300" d="M100.949,88.649l1.489-4.949 M98.606,96.436l1.882-6.258L100.35,90.3 M96.257,104.247l2.045-6.8"/>
		<polyline fill="#FEE300" points="169.35,104.7 169.365,104.7 168.874,103.075 		"/>
		<polygon fill="#FEE300" points="186.529,89.021 185.692,86.258 168.874,103.075 169.365,104.7 170.85,104.7 		"/>
		<line fill="#FEE300" x1="185.692" y1="86.258" x2="186.529" y2="89.021"/>
		<path fill="#FEE300" d="M225.447,73.2c0,0.9,0.049,1.552,0.15,1.95l-15.75,15.75l-1.35-2.25l15.45-15.45h-1.35l-14.55,14.55
			c-0.501-0.9-0.9-1.748-1.2-2.55l12-12h-1.35l-11.1,11.1c-0.202-0.5-0.352-0.975-0.45-1.425c-0.101-0.45-0.251-0.923-0.45-1.425
			l8.25-8.25h-1.35l-7.2,7.2l-0.45-3.15l3.9-4.05h-1.35l-2.7,2.85c-0.101-0.5-0.15-0.975-0.15-1.425c0-0.45,0-0.923,0-1.425v-42
			c0-4.298,0.825-8.374,2.475-12.225c1.65-3.848,3.9-7.2,6.75-10.05s6.173-5.1,9.975-6.75c3.799-1.65,7.898-2.475,12.3-2.475v0.6
			l0.6-0.6h3.75l-4.35,4.35V5.4l5.55-5.7h3.75l-9.3,9.45v1.2l10.65-10.65h3.75l-14.4,14.4v1.35l15.75-15.75h3.75l-19.5,19.5v1.35
			l20.85-20.85h0.15c0.6,0,1.174,0,1.725,0c0.549,0,1.125,0.052,1.726,0.15L239.547,20.7h-3.6c-2.901,0-5.376,1.026-7.425,3.075
			c-2.051,2.051-3.075,4.525-3.075,7.425V73.2z M225.897,76.35c0.199,0.501,0.398,0.926,0.6,1.275
			c0.199,0.352,0.398,0.776,0.6,1.275l-15,14.85c-0.3-0.3-0.577-0.623-0.825-0.975c-0.251-0.35-0.525-0.725-0.825-1.125
			L225.897,76.35z M227.697,79.65c0.199,0.3,0.45,0.625,0.75,0.975c0.3,0.352,0.649,0.626,1.05,0.825l-14.85,15l-1.95-1.95
			L227.697,79.65z M230.247,82.05c0.5,0.202,0.924,0.401,1.275,0.6c0.349,0.201,0.773,0.4,1.275,0.6l-15.45,15.45
			c-0.3-0.3-0.625-0.574-0.975-0.825c-0.352-0.248-0.675-0.525-0.975-0.825L230.247,82.05z M256.947,83.7
			c0.499,0,1.249-0.099,2.25-0.3l15.75,15.75c-0.802,0.4-1.35,0.75-1.65,1.05l-16.35-16.35v0.6l-0.9,0.9l0.75,0.75l0.15-0.3v0.45
			l14.85,14.7l-1.8,0.9l-13.05-12.9v0.6l-0.9,0.9l0.75,0.6l0.15-0.15v0.45l11.25,11.25c-0.3,0.202-0.6,0.326-0.9,0.375
			c-0.3,0.052-0.651,0.176-1.05,0.375l-9.3-9.3v0.6l-0.9,0.9l0.75,0.6l0.15-0.15v0.3l7.5,7.5l-2.25,0.45l-5.25-5.25v0.75l-0.9,0.9
			l0.75,0.6l0.15-0.15v0.3l3.15,3.15c-0.502,0.101-0.952,0.15-1.351,0.15c-0.4,0-0.802,0-1.2,0l-0.6-0.6v0.6h-4.5l-0.3-0.15
			l-0.15,0.15h-4.649l-0.15-0.15l-0.3,0.15h-4.65l-0.149-0.15l-0.301,0.15h-4.649l-0.15-0.15l-0.3,0.15h-0.75
			c-0.501,0-0.975,0-1.425,0c-0.45,0-0.926-0.049-1.425-0.15l2.85-2.7v-1.05l0.45,0.45l1.2-1.2l-0.6-0.6l-5.1,4.95
			c-0.502-0.099-1.027-0.174-1.575-0.225c-0.551-0.049-1.076-0.173-1.575-0.375l7.2-7.05V95.7l0.45,0.45l1.2-1.2l-0.6-0.6l-9.3,9.3
			c-0.501-0.199-0.975-0.35-1.425-0.45c-0.45-0.099-0.926-0.249-1.425-0.45l11.1-11.1V90.6l0.45,0.45l1.2-1.2l-0.6-0.6l-13.05,13.05
			c-0.802-0.3-1.65-0.699-2.55-1.2l14.55-14.55V85.5l0.45,0.6l1.2-1.2l-0.6-0.75l-16.5,16.5c-0.4-0.199-0.775-0.424-1.125-0.675
			c-0.352-0.249-0.727-0.525-1.125-0.825l15.6-15.6c0.5,0.101,1.2,0.15,2.1,0.15H256.947z M238.347,87.9l0.6,0.6l1.2-1.05
			l-0.601-0.75L238.347,87.9z M240.147,92.4l-0.601-0.6l-1.2,1.2l0.6,0.6L240.147,92.4z M240.147,97.5l-0.601-0.6l-1.2,1.2l0.6,0.6
			L240.147,97.5z M240.147,102.6l-0.601-0.6l-1.2,1.2l0.6,0.6L240.147,102.6z M240.897,20.7l20.7-20.7
			c0.499,0.101,0.998,0.202,1.5,0.3c0.499,0.101,0.998,0.202,1.5,0.3l-19.95,20.1H240.897z M240.897,85.35l0.6,0.75l1.2-1.2
			l-0.6-0.75L240.897,85.35z M242.697,89.85l-0.6-0.6l-1.2,1.2l0.6,0.6L242.697,89.85z M242.697,94.95l-0.6-0.6l-1.2,1.2l0.6,0.6
			L242.697,94.95z M242.697,100.05l-0.6-0.6l-1.2,1.2l0.6,0.6L242.697,100.05z M245.247,87.45l-0.6-0.75l-1.2,1.2l0.6,0.6
			L245.247,87.45z M245.247,92.4l-0.6-0.6l-1.2,1.2l0.6,0.6L245.247,92.4z M245.247,97.5l-0.6-0.6l-1.2,1.2l0.6,0.6L245.247,97.5z
			 M245.247,102.6l-0.6-0.6l-1.2,1.2l0.6,0.6L245.247,102.6z M245.997,20.7l19.65-19.8c1.2,0.3,2.149,0.651,2.85,1.05l-18.75,18.75
			H245.997z M247.797,84.9l-0.6-0.75l-1.2,1.2l0.601,0.75L247.797,84.9z M247.797,89.85l-0.6-0.6l-1.2,1.2l0.601,0.6L247.797,89.85z
			 M247.797,94.95l-0.6-0.6l-1.2,1.2l0.601,0.6L247.797,94.95z M247.797,100.05l-0.6-0.6l-1.2,1.2l0.601,0.6L247.797,100.05z
			 M250.348,87.45l-0.75-0.75l-1.051,1.2l0.601,0.6L250.348,87.45z M250.348,92.4l-0.75-0.6l-1.051,1.2l0.601,0.6L250.348,92.4z
			 M250.348,97.5l-0.75-0.6l-1.051,1.2l0.601,0.6L250.348,97.5z M250.348,102.6l-0.75-0.6l-1.051,1.2l0.601,0.6L250.348,102.6z
			 M252.897,84.9l-0.75-0.75l-1.2,1.2l0.75,0.75L252.897,84.9z M252.897,89.85l-0.75-0.6l-1.2,1.2l0.75,0.6L252.897,89.85z
			 M252.897,94.95l-0.75-0.6l-1.2,1.2l0.75,0.6L252.897,94.95z M252.897,100.05l-0.75-0.6l-1.2,1.2l0.75,0.6L252.897,100.05z
			 M251.098,20.7l18.3-18.45c0.499,0.202,0.949,0.401,1.35,0.6c0.398,0.202,0.8,0.401,1.2,0.6l-17.25,17.25H251.098z M255.447,87.45
			l-0.75-0.75l-1.2,1.2l0.75,0.6L255.447,87.45z M255.447,92.4l-0.75-0.6l-1.2,1.2l0.75,0.6L255.447,92.4z M255.447,97.5l-0.75-0.6
			l-1.2,1.2l0.75,0.6L255.447,97.5z M255.447,102.6l-0.75-0.6l-1.2,1.2l0.75,0.6L255.447,102.6z M256.047,20.7l16.801-16.65
			c0.398,0.202,0.773,0.426,1.125,0.675c0.349,0.251,0.724,0.525,1.125,0.825L259.497,21c-1.001-0.199-1.852-0.3-2.55-0.3H256.047z
			 M262.947,22.65c-0.4-0.3-0.775-0.549-1.125-0.75c-0.352-0.199-0.775-0.398-1.275-0.6L275.848,6c0.398,0.3,0.75,0.6,1.05,0.9
			c0.3,0.3,0.649,0.6,1.05,0.9L262.947,22.65z M260.997,82.8c0.601-0.099,1.2-0.398,1.8-0.9l15,15c-0.4,0.201-0.899,0.6-1.5,1.2
			L260.997,82.8z M265.497,25.2c-0.4-0.698-1.001-1.35-1.8-1.95l14.85-14.85c0.398,0.3,0.75,0.6,1.051,0.9
			c0.3,0.3,0.6,0.6,0.899,0.9L265.497,25.2z M264.147,80.85c0.6-0.6,0.998-1.05,1.2-1.35l15,14.85l-1.351,1.35L264.147,80.85z
			 M267.147,28.65c-0.202-0.5-0.375-0.949-0.525-1.35c-0.149-0.398-0.325-0.849-0.524-1.35l15-15c0.3,0.401,0.574,0.75,0.824,1.05
			c0.249,0.3,0.525,0.652,0.825,1.05L267.147,28.65z M266.247,78c0.3-0.698,0.549-1.35,0.75-1.95l15.601,15.45
			c-0.202,0.3-0.401,0.577-0.601,0.825c-0.201,0.251-0.4,0.476-0.6,0.675L266.247,78z M288.297,29.1
			c0.099,0.401,0.15,1.102,0.15,2.1v5.25h-21V31.2c0-0.6-0.052-1.05-0.15-1.35l15.9-15.9c0.3,0.401,0.574,0.776,0.825,1.125
			c0.248,0.352,0.474,0.727,0.675,1.125l-15,15h1.35l14.101-14.1c0.199,0.501,0.375,0.926,0.524,1.275
			c0.15,0.352,0.324,0.776,0.525,1.275l-11.4,11.55h1.2l10.65-10.5c0.199,0.501,0.349,0.975,0.45,1.425
			c0.098,0.45,0.248,0.926,0.449,1.425l-7.8,7.65h1.351l6.6-6.6c0.199,0.802,0.398,1.901,0.6,3.3l-3.449,3.3h1.35L288.297,29.1z
			 M269.098,67.95l17.1,16.95c-0.201,0.501-0.502,1.15-0.9,1.95L267.447,69v-1.05H269.098z M267.447,71.4l17.1,16.95
			c-0.201,0.3-0.375,0.6-0.524,0.9c-0.15,0.3-0.326,0.6-0.525,0.9l-16.05-16.2V73.2V71.4z M274.197,67.95l13.2,13.2
			c-0.202,0.801-0.401,1.5-0.601,2.1l-15.3-15.3H274.197z M279.297,67.95l8.851,9c0,0.501-0.101,1.251-0.3,2.25l-11.25-11.25
			H279.297z M284.397,67.95l4.05,4.05v1.2v1.5l-6.75-6.75H284.397z M286.797,67.95h1.65v1.65L286.797,67.95z"/>
		<polygon fill="#FEE300" points="328.347,37.2 307.347,58.2 307.347,61.95 328.347,40.95 		"/>
		<polygon fill="#FEE300" points="363.896,52.35 348.597,67.65 349.946,70.05 365.247,54.75 		"/>
		<polygon fill="#FEE300" points="361.946,49.2 346.646,64.5 347.997,66.9 363.446,51.6 		"/>
		<polygon fill="#FEE300" points="360.146,46.05 344.697,61.2 346.197,63.75 361.497,48.45 		"/>
		<line fill="#FEE300" x1="390.266" y1="96.838" x2="392.396" y2="100.465"/>
		<polygon fill="#FEE300" points="372.896,67.5 371.396,65.1 356.097,80.4 357.597,82.8 		"/>
		<line fill="#FEE300" x1="363.715" y1="93.268" x2="359.744" y2="86.459"/>
		<polyline fill="#FEE300" points="370.196,104.7 370.382,104.7 366.863,98.667 		"/>
		<path fill="#FEE300" d="M392.172,103.622l1.219-1.047l0.301,0.239l-1.295-2.349l-2.131-3.627l-0.569-0.538l0.15-0.15l-0.332-0.59
			l-1.046-1.781l-0.572,0.571l-0.75-0.6l0.822-0.822l-5.136-8.742l-0.036-0.036l-0.45-0.45h-0.3l0.3-0.3l-1.35-2.4l-3.301,3.15
			l-0.449-0.45h-0.301l3.45-3.45l-1.35-2.4l-6.45,6.3l-0.45-0.45h-0.3l6.75-6.75l-1.5-2.25l-9.45,9.45l-0.6-0.45h-0.3l9.899-9.9
			l-1.35-2.25l-12.75,12.6l-0.601-0.45h-0.3l13.05-13.05l-1.35-2.4l-15.299,15.3l1.381,2.368l1.018-1.018l0.75,0.6l-1.199,1.2
			l-0.253-0.241l3.971,6.809l0.032,0.032l1.35,2.25l0.45-0.45l0.75,0.6l-0.75,0.6l1.5,2.4l1.05-1.05l0.6,0.6l-1.05,1.2l-0.783-0.783
			l3.519,6.033h24.349l-0.754-1.369l-1.125,0.986l-0.68-0.68 M393.691,102.814 M362.547,89.25l-0.75-0.6l1.2-1.2l0.75,0.6
			L362.547,89.25z M365.097,91.8l-0.75-0.6l1.2-1.2l0.75,0.6L365.097,91.8z M365.097,86.7l-0.75-0.6l1.2-1.2l0.75,0.6L365.097,86.7z
			 M367.646,94.35l-0.75-0.6l1.2-1.2l0.6,0.6L367.646,94.35z M367.646,89.25l-0.75-0.6l1.2-1.2l0.6,0.6L367.646,89.25z M370.047,102
			l-0.601-0.75l1.2-1.05l0.601,0.6L370.047,102z M370.047,96.9l-0.601-0.6l1.2-1.2l0.601,0.6L370.047,96.9z M370.047,91.8
			l-0.601-0.6l1.2-1.2l0.601,0.6L370.047,91.8z M370.047,86.7l-0.601-0.6l1.2-1.2l0.601,0.6L370.047,86.7z M372.597,104.55
			l-0.6-0.75l1.199-1.2l0.601,0.75L372.597,104.55z M372.597,99.45l-0.6-0.6l1.199-1.2l0.601,0.6L372.597,99.45z M372.597,94.35
			l-0.6-0.6l1.199-1.2l0.601,0.6L372.597,94.35z M372.597,89.25l-0.6-0.6l1.199-1.2l0.601,0.6L372.597,89.25z M375.146,102
			l-0.6-0.75l1.2-1.05l0.6,0.6L375.146,102z M375.146,96.9l-0.6-0.6l1.2-1.2l0.6,0.6L375.146,96.9z M375.146,91.8l-0.6-0.6l1.2-1.2
			l0.6,0.6L375.146,91.8z M375.146,86.7l-0.6-0.6l1.2-1.2l0.6,0.6L375.146,86.7z M377.696,104.55l-0.6-0.75l1.2-1.2l0.6,0.75
			L377.696,104.55z M377.696,99.45l-0.6-0.6l1.2-1.2l0.6,0.6L377.696,99.45z M377.696,94.35l-0.6-0.6l1.2-1.2l0.6,0.6L377.696,94.35
			z M377.696,89.25l-0.6-0.6l1.2-1.2l0.6,0.6L377.696,89.25z M380.247,102l-0.601-0.75l1.2-1.05l0.6,0.6L380.247,102z M380.247,96.9
			l-0.601-0.6l1.2-1.2l0.6,0.6L380.247,96.9z M380.247,91.8l-0.601-0.6l1.2-1.2l0.6,0.6L380.247,91.8z M380.247,86.7l-0.601-0.6
			l1.2-1.2l0.6,0.6L380.247,86.7z M382.797,104.55l-0.601-0.75l1.2-1.2l0.601,0.75L382.797,104.55z M382.797,99.45l-0.601-0.6
			l1.2-1.2l0.601,0.6L382.797,99.45z M382.797,94.35l-0.601-0.6l1.2-1.2l0.601,0.6L382.797,94.35z M382.797,89.25l-0.601-0.6
			l1.2-1.2l0.601,0.6L382.797,89.25z M385.347,102l-0.6-0.75l1.05-1.05l0.75,0.6L385.347,102z M385.347,96.9l-0.6-0.6l1.05-1.2
			l0.75,0.6L385.347,96.9z M385.347,91.8l-0.6-0.6l1.05-1.2l0.75,0.6L385.347,91.8z M387.896,104.55l-0.75-0.75l1.2-1.2l0.75,0.75
			L387.896,104.55z M387.896,99.45l-0.75-0.6l1.2-1.2l0.75,0.6L387.896,99.45z M390.446,102l-0.75-0.75l1.2-1.05l0.75,0.6
			L390.446,102z"/>
		<polygon fill="#FEE300" points="358.047,83.55 359.396,85.95 359.429,85.918 358.048,83.55 		"/>
		<polygon fill="#FEE300" points="388.497,93.75 388.469,93.779 389.515,95.56 		"/>
		<polyline fill="#FEE300" points="382.946,84.3 382.833,84.187 387.969,92.928 388.047,92.85 386.847,90.9 		"/>
		<polygon fill="#FEE300" points="328.347,21.9 307.347,42.9 307.347,46.65 328.347,25.65 		"/>
		<polygon fill="#FEE300" points="328.347,42.3 307.347,63.3 307.347,67.05 328.347,46.05 		"/>
		<polygon fill="#FEE300" points="328.347,32.1 307.347,53.1 307.347,56.85 328.347,35.85 		"/>
		<path fill="#FEE300" d="M329.097,20.7l-0.75-0.75V17.7V15v-2.4V9.9V7.5V4.8V2.4v-2.7h-3.15l-0.899,0.9l-0.75-0.6l0.3-0.3h-3.75
			l-0.9,0.9l-0.75-0.6l0.301-0.3h-3.75l-0.9,0.9l-0.75-0.6l0.45-0.3h-3.75l-1.05,0.9L308.396,0l0.3-0.3h-1.346l0.296,2.25l-0.3,0.45
			v1.65v3.3v1.8v3.3v1.8v3.3v1.8v1.35v0.6l0.6-0.6h0.75l-0.3-0.45l1.2-1.2l0.6,0.75l-2.85,2.85v3.75l5.7-5.7h0.75l-0.45-0.45
			l1.2-1.2l0.75,0.75l-7.95,7.95v3.75l10.8-10.8h0.75l-0.45-0.45l1.2-1.2l0.75,0.75l-13.05,13.05v3.75l15.9-15.9h0.75l-0.45-0.45
			l1.2-1.2l0.75,0.75l-18.15,18v3.75l20.85-20.85H329.097z M308.997,15.9l-0.601-0.6l1.2-1.2l0.6,0.6L308.997,15.9z M308.997,10.8
			l-0.601-0.6l1.2-1.2l0.6,0.6L308.997,10.8z M308.997,5.7l-0.601-0.6l1.2-1.2l0.6,0.6L308.997,5.7z M311.547,18.45l-0.601-0.75
			l1.2-1.05l0.601,0.6L311.547,18.45z M311.547,13.35l-0.601-0.6l1.2-1.2l0.601,0.6L311.547,13.35z M311.547,8.25l-0.601-0.6
			l1.2-1.2l0.601,0.6L311.547,8.25z M311.547,3.15l-0.601-0.6l1.2-1.2l0.601,0.6L311.547,3.15z M314.097,15.9l-0.75-0.6l1.2-1.2
			l0.75,0.6L314.097,15.9z M314.097,10.8l-0.75-0.6l1.2-1.2l0.75,0.6L314.097,10.8z M314.097,5.7l-0.75-0.6l1.2-1.2l0.75,0.6
			L314.097,5.7z M316.646,18.45l-0.75-0.75l1.2-1.05l0.75,0.6L316.646,18.45z M316.646,13.35l-0.75-0.6l1.2-1.2l0.75,0.6
			L316.646,13.35z M316.646,8.25l-0.75-0.6l1.2-1.2l0.75,0.6L316.646,8.25z M316.646,3.15l-0.75-0.6l1.2-1.2l0.75,0.6L316.646,3.15z
			 M319.196,15.9l-0.75-0.6l1.2-1.2l0.75,0.6L319.196,15.9z M319.196,10.8l-0.75-0.6l1.2-1.2l0.75,0.6L319.196,10.8z M319.196,5.7
			l-0.75-0.6l1.2-1.2l0.75,0.6L319.196,5.7z M321.747,18.45l-0.75-0.75l1.199-1.05l0.75,0.6L321.747,18.45z M321.747,13.35
			l-0.75-0.6l1.199-1.2l0.75,0.6L321.747,13.35z M321.747,8.25l-0.75-0.6l1.199-1.2l0.75,0.6L321.747,8.25z M321.747,3.15l-0.75-0.6
			l1.199-1.2l0.75,0.6L321.747,3.15z M324.297,15.9l-0.75-0.6l1.2-1.2l0.75,0.6L324.297,15.9z M324.297,10.8l-0.75-0.6l1.2-1.2
			l0.75,0.6L324.297,10.8z M324.297,5.7l-0.75-0.6l1.2-1.2l0.75,0.6L324.297,5.7z M326.847,18.45l-0.75-0.75l1.2-1.05l0.6,0.6
			L326.847,18.45z M326.847,13.35l-0.75-0.6l1.2-1.2l0.6,0.6L326.847,13.35z M326.847,8.25l-0.75-0.6l1.2-1.2l0.6,0.6L326.847,8.25z
			 M326.847,3.15l-0.75-0.6l1.2-1.2l0.6,0.6L326.847,3.15z"/>
		<polygon fill="#FEE300" points="328.347,27 307.347,48 307.347,51.75 328.347,30.75 		"/>
		<polygon fill="#FEE300" points="350.396,70.95 351.896,73.2 367.196,57.9 365.696,55.65 		"/>
		<polygon fill="#FEE300" points="370.946,64.35 369.597,61.95 354.297,77.25 355.646,79.65 		"/>
		<polygon fill="#FEE300" points="328.347,82.8 327.446,83.7 326.097,83.7 328.347,81.45 328.347,77.7 322.347,83.7 321.146,83.7 
			328.347,76.5 328.347,72.75 317.396,83.7 316.047,83.7 328.347,71.4 328.347,67.65 312.297,83.7 310.946,83.7 328.347,66.3 
			328.347,70.7 392.4,-0.15 368.05,0.15 328.347,46.35 328.347,47.25 307.347,68.25 307.347,72 328.347,51 328.347,52.35 
			307.347,73.35 307.347,77.1 328.347,56.1 328.347,57.45 307.347,78.45 307.347,82.2 328.347,61.2 328.347,62.55 307.347,83.55 
			307.347,83.7 307.35,104.7 328.35,104.7 328.347,83.7 		"/>
		<polygon fill="#FEE300" points="368.997,61.05 367.646,58.8 352.347,74.1 353.696,76.35 		"/>
		<path fill="#FEE300" d="M412.195,20.7h0.005v-21h21v21h-0.604l-20.4,20.4v-3.75l16.65-16.65h-1.351l-15.3,15.3v-3.75l11.55-11.55
			h-1.2l-10.35,10.35V27.3l6.6-6.6h-1.35l-5.25,5.25V22.2l1.5-1.5h-1.35l-0.15,0.15V20.7z M489.896,1.8l-2.101-2.1h2.105
			L489.896,1.8z M489.896,6.9l-7.2-7.2h2.7l4.5,4.5V6.9z M489.896,12l-12.3-12.3h2.699l9.601,9.6V12z M489.896,17.1l-17.4-17.4h2.7
			l14.7,14.7V17.1z M468.896,11.25 M468.896,16.35v-2.7 M468.896,8.55l21,21V73.2c0,0.501,0,1.026,0,1.575
			c0,0.551-0.052,1.076-0.15,1.575l-28.2,28.2c-0.501,0.101-1.026,0.15-1.574,0.15c-0.551,0-1.076,0-1.575,0h-14.7
			c-4.401,0-8.501-0.825-12.3-2.475c-3.802-1.65-7.125-3.9-9.976-6.75c-2.85-2.85-5.1-6.173-6.75-9.975
			c-1.649-3.799-2.475-7.898-2.475-12.3v-0.3l21-21v3.75l-17.55,17.55h1.35l16.2-16.2v3.75l-12.45,12.45h1.351l11.1-11.1v3.75
			l-7.35,7.35h1.35l6-6v3.75l-2.25,2.25h1.2l1.05-0.9v0.9c0,2.901,1.024,5.376,3.075,7.425c2.048,2.051,4.523,3.075,7.425,3.075
			h14.7c1.8,0,3.398-0.398,4.8-1.2l-4.8,4.8v1.35l16.05-16.05l-0.6-0.6l-1.2,1.2h-0.15l-4.8,4.8c0.799-1.399,1.2-3,1.2-4.8v-0.15
			l0.45-0.45l-0.45-0.45V68.1l0.45-0.6l-0.45-0.45V63l0.45-0.45l-0.45-0.6V57.9l0.45-0.45l-0.45-0.45v-4.2l0.45-0.45l-0.45-0.45
			v-4.2l0.45-0.45l-0.45-0.45v-4.2l0.45-0.45l-0.45-0.45v-4.2l0.45-0.45l-0.45-0.45v-4.05l0.45-0.6l-0.45-0.45v-2.7l2.399,2.4h2.25
			l-4.649-4.65v-2.7l7.35,7.35h2.4l-9.75-9.75v-2.7 M468.896,3.45l21,21v2.7l-21-21 M489.896,22.05l-21-21L468.9-0.3h1.345
			l19.65,19.65V22.05z M433.195,25.2l-21,21v-3.75l21-21V25.2z M433.195,30.3l-21,21v-3.75l21-21V30.3z M433.195,35.4l-21,21v-3.75
			l21-21V35.4z M433.195,40.5l-21,21v-3.75l21-21V40.5z M433.195,45.45l-21,21V62.7l21-21V45.45z M412.195,67.8l21-21v3.75l-21,21
			V67.8z M489.596,72.6l-0.601-0.6l-1.2,1.2l-29.399,29.4v1.35L489.596,72.6z M458.396,98.85l26.25-26.25l-0.75-0.6l-1.2,1.2h0.15
			h-0.15l-24.3,24.3V98.85z M458.396,93.75l21.149-21.15l-0.75-0.6l-1.199,1.2h0.149h-0.149l-19.2,19.2V93.75z M467.846,103.2
			c-0.802,0.3-1.602,0.525-2.4,0.675c-0.802,0.15-1.601,0.326-2.4,0.525l26.551-26.55c-0.202,0.802-0.375,1.601-0.525,2.4
			c-0.15,0.802-0.375,1.601-0.675,2.4L467.846,103.2z M468.896,13.65l17.55,17.55h2.4l-19.95-19.95 M468.896,18.75l12.45,12.45
			h2.399l-14.85-14.85 M487.646,84.75c-1.601,4.102-3.926,7.676-6.976,10.725c-3.051,3.052-6.625,5.376-10.725,6.975L487.646,84.75z
			 M471.896,34.5l-0.601-0.6l-1.199,1.2l0.6,0.6L471.896,34.5z M471.896,39.6l-0.601-0.6l-1.199,1.2l0.6,0.6L471.896,39.6z
			 M471.896,44.7l-0.601-0.6l-1.199,1.2l0.6,0.6L471.896,44.7z M471.896,49.8l-0.601-0.6l-1.199,1.05l0.6,0.75L471.896,49.8z
			 M471.896,54.9l-0.601-0.75l-1.199,1.2l0.6,0.75L471.896,54.9z M471.896,60l-0.601-0.75l-1.199,1.2l0.6,0.75L471.896,60z
			 M471.896,64.95l-0.601-0.6l-1.199,1.2l0.6,0.6L471.896,64.95z M471.896,70.05l-0.601-0.6l-1.199,1.2l0.6,0.6L471.896,70.05z
			 M472.646,32.55l0.6,0.6l1.2-1.2l-0.6-0.6L472.646,32.55z M472.646,37.65l0.6,0.6l1.2-1.2l-0.6-0.6L472.646,37.65z M472.646,42.75
			l0.6,0.6l1.2-1.2l-0.6-0.6L472.646,42.75z M472.646,47.85l0.6,0.6l1.2-1.2l-0.6-0.6L472.646,47.85z M472.646,52.8l0.6,0.75
			l1.2-1.2l-0.6-0.75L472.646,52.8z M472.646,57.9l0.6,0.75l1.2-1.2l-0.6-0.75L472.646,57.9z M472.646,63l0.6,0.6l1.2-1.05
			l-0.6-0.75L472.646,63z M474.445,67.5l-0.6-0.6l-1.2,1.2l0.6,0.6L474.445,67.5z M475.195,35.1l0.6,0.6l1.2-1.2l-0.75-0.6
			L475.195,35.1z M475.195,40.2l0.6,0.6l1.2-1.2l-0.75-0.6L475.195,40.2z M475.195,45.3l0.6,0.6l1.2-1.2l-0.75-0.6L475.195,45.3z
			 M475.195,50.25l0.6,0.75l1.2-1.2l-0.75-0.6L475.195,50.25z M475.195,55.35l0.6,0.75l1.2-1.2l-0.75-0.75L475.195,55.35z
			 M475.195,60.45l0.6,0.75l1.2-1.2l-0.75-0.75L475.195,60.45z M475.195,65.55l0.6,0.6l1.2-1.2l-0.75-0.6L475.195,65.55z
			 M475.195,70.65l0.6,0.6l1.2-1.2l-0.75-0.6L475.195,70.65z M477.596,32.55l0.75,0.6l1.199-1.2l-0.75-0.6L477.596,32.55z
			 M477.596,37.65l0.75,0.6l1.199-1.2l-0.75-0.6L477.596,37.65z M477.596,42.75l0.75,0.6l1.199-1.2l-0.75-0.6L477.596,42.75z
			 M477.596,47.85l0.75,0.6l1.199-1.2l-0.75-0.6L477.596,47.85z M477.596,52.8l0.75,0.75l1.199-1.2l-0.75-0.75L477.596,52.8z
			 M477.596,57.9l0.75,0.75l1.199-1.2l-0.75-0.75L477.596,57.9z M477.596,63l0.75,0.6l1.199-1.05l-0.75-0.75L477.596,63z
			 M477.596,68.1l0.75,0.6l1.199-1.2l-0.75-0.6L477.596,68.1z M482.096,34.5l-0.75-0.6l-1.2,1.2l0.75,0.6L482.096,34.5z
			 M482.096,39.6l-0.75-0.6l-1.2,1.2l0.75,0.6L482.096,39.6z M482.096,44.7l-0.75-0.6l-1.2,1.2l0.75,0.6L482.096,44.7z
			 M482.096,49.8l-0.75-0.6l-1.2,1.05l0.75,0.75L482.096,49.8z M482.096,54.9l-0.75-0.75l-1.2,1.2l0.75,0.75L482.096,54.9z
			 M482.096,60l-0.75-0.75l-1.2,1.2l0.75,0.75L482.096,60z M482.096,64.95l-0.75-0.6l-1.2,1.2l0.75,0.6L482.096,64.95z
			 M481.346,69.45l-1.2,1.2l0.75,0.6l1.2-1.2L481.346,69.45z M484.646,31.95l-0.75-0.6l-1.2,1.2l0.75,0.6L484.646,31.95z
			 M484.646,37.05l-0.75-0.6l-1.2,1.2l0.75,0.6L484.646,37.05z M484.646,42.15l-0.75-0.6l-1.2,1.2l0.75,0.6L484.646,42.15z
			 M484.646,47.25l-0.75-0.6l-1.2,1.2l0.75,0.6L484.646,47.25z M484.646,52.35l-0.75-0.75l-1.2,1.2l0.75,0.75L484.646,52.35z
			 M484.646,57.45l-0.75-0.75l-1.2,1.2l0.75,0.75L484.646,57.45z M484.646,62.55l-0.75-0.75l-1.2,1.2l0.75,0.6L484.646,62.55z
			 M483.896,66.9l-1.2,1.2l0.75,0.6l1.2-1.2L483.896,66.9z M485.995,35.7l1.2-1.2l-0.75-0.6l-1.2,1.2L485.995,35.7z M485.245,40.2
			l0.75,0.6l1.2-1.2l-0.75-0.6L485.245,40.2z M485.245,45.3l0.75,0.6l1.2-1.2l-0.75-0.6L485.245,45.3z M485.245,50.25l0.75,0.75
			l1.2-1.2l-0.75-0.6L485.245,50.25z M485.245,55.35l0.75,0.75l1.2-1.2l-0.75-0.75L485.245,55.35z M485.245,60.45l0.75,0.75l1.2-1.2
			l-0.75-0.75L485.245,60.45z M485.245,65.55l0.75,0.6l1.2-1.2l-0.75-0.6L485.245,65.55z M485.245,70.65l0.75,0.6l1.2-1.2l-0.75-0.6
			L485.245,70.65z M488.995,31.35l-1.2,1.2l0.75,0.6l1.051-1.2L488.995,31.35z M489.596,37.05l-0.601-0.6l-1.2,1.2l0.75,0.6
			L489.596,37.05z M489.596,42.15l-0.601-0.6l-1.2,1.2l0.75,0.6L489.596,42.15z M489.596,47.25l-0.601-0.6l-1.2,1.2l0.75,0.6
			L489.596,47.25z M489.596,52.35l-0.601-0.75l-1.2,1.2l0.75,0.75L489.596,52.35z M489.596,57.45l-0.601-0.75l-1.2,1.2l0.75,0.75
			L489.596,57.45z M489.596,62.55l-0.601-0.75l-1.2,1.2l0.75,0.6L489.596,62.55z M489.596,67.5l-0.601-0.6l-1.2,1.2l0.75,0.6
			L489.596,67.5z"/>
		<path fill="#FEE300" d="M530.845,73.2c0,0.9,0.049,1.552,0.15,1.95l-15.75,15.75l-1.351-2.25l15.45-15.45h-1.35l-14.551,14.55
			c-0.501-0.9-0.899-1.748-1.199-2.55l12-12h-1.351l-11.1,11.1c-0.202-0.5-0.352-0.975-0.45-1.425
			c-0.101-0.45-0.251-0.923-0.45-1.425l8.25-8.25h-1.35l-7.2,7.2l-0.45-3.15l3.9-4.05h-1.351l-2.699,2.85
			c-0.102-0.5-0.15-0.975-0.15-1.425c0-0.45,0-0.923,0-1.425v-42c0-4.298,0.825-8.374,2.475-12.225c1.65-3.848,3.9-7.2,6.75-10.05
			c2.851-2.85,6.174-5.1,9.976-6.75c3.799-1.65,7.898-2.475,12.3-2.475v0.6l0.6-0.6h3.75l-4.35,4.35V5.4l5.55-5.7h3.75l-9.3,9.45
			v1.2l10.65-10.65h3.75l-14.4,14.4v1.35l15.75-15.75h3.75l-19.5,19.5v1.35l20.85-20.85h0.15c0.6,0,1.174,0,1.725,0
			c0.549,0,1.125,0.052,1.726,0.15L544.944,20.7h-3.6c-2.901,0-5.377,1.026-7.425,3.075c-2.051,2.051-3.075,4.525-3.075,7.425V73.2z
			 M531.295,76.35c0.199,0.501,0.398,0.926,0.6,1.275c0.199,0.352,0.398,0.776,0.601,1.275l-15,14.85
			c-0.301-0.3-0.577-0.623-0.825-0.975c-0.251-0.35-0.525-0.725-0.825-1.125L531.295,76.35z M533.095,79.65
			c0.199,0.3,0.45,0.625,0.75,0.975c0.3,0.352,0.649,0.626,1.05,0.825l-14.85,15l-1.95-1.95L533.095,79.65z M535.645,82.05
			c0.499,0.202,0.924,0.401,1.275,0.6c0.349,0.201,0.773,0.4,1.274,0.6L522.745,98.7c-0.301-0.3-0.626-0.574-0.976-0.825
			c-0.352-0.248-0.675-0.525-0.975-0.825L535.645,82.05z M562.345,83.7c0.499,0,1.249-0.099,2.25-0.3l15.75,15.75
			c-0.802,0.4-1.35,0.75-1.65,1.05l-16.35-16.35v0.6l-0.9,0.9l0.75,0.75l0.15-0.3v0.45l14.85,14.7l-1.8,0.9l-13.05-12.9v0.6
			l-0.9,0.9l0.75,0.6l0.15-0.15v0.45l11.25,11.25c-0.3,0.202-0.6,0.326-0.9,0.375c-0.3,0.052-0.651,0.176-1.05,0.375l-9.3-9.3v0.6
			l-0.9,0.9l0.75,0.6l0.15-0.15v0.3l7.5,7.5l-2.25,0.45l-5.25-5.25v0.75l-0.9,0.9l0.75,0.6l0.15-0.15v0.3l3.15,3.15
			c-0.502,0.101-0.952,0.15-1.351,0.15c-0.4,0-0.802,0-1.2,0l-0.6-0.6v0.6h-4.5l-0.3-0.15l-0.15,0.15h-4.649l-0.15-0.15l-0.3,0.15
			h-4.65l-0.149-0.15l-0.301,0.15h-4.649l-0.15-0.15l-0.3,0.15h-0.75c-0.502,0-0.975,0-1.425,0s-0.926-0.049-1.425-0.15l2.85-2.7
			v-1.05l0.45,0.45l1.2-1.2l-0.601-0.6l-5.1,4.95c-0.502-0.099-1.026-0.174-1.575-0.225c-0.551-0.049-1.076-0.173-1.575-0.375
			l7.2-7.05V95.7l0.45,0.45l1.2-1.2l-0.601-0.6l-9.3,9.3c-0.502-0.199-0.975-0.35-1.425-0.45c-0.45-0.099-0.926-0.249-1.425-0.45
			l11.1-11.1V90.6l0.45,0.45l1.2-1.2l-0.601-0.6l-13.05,13.05c-0.802-0.3-1.65-0.699-2.55-1.2l14.55-14.55V85.5l0.45,0.6l1.2-1.2
			l-0.601-0.75l-16.5,16.5c-0.4-0.199-0.775-0.424-1.125-0.675c-0.352-0.249-0.727-0.525-1.125-0.825l15.601-15.6
			c0.499,0.101,1.199,0.15,2.1,0.15H562.345z M543.745,87.9l0.6,0.6l1.2-1.05l-0.601-0.75L543.745,87.9z M545.545,92.4l-0.601-0.6
			l-1.199,1.2l0.6,0.6L545.545,92.4z M545.545,97.5l-0.601-0.6l-1.199,1.2l0.6,0.6L545.545,97.5z M545.545,102.6l-0.601-0.6
			l-1.199,1.2l0.6,0.6L545.545,102.6z M546.295,20.7l20.7-20.7c0.499,0.101,0.998,0.202,1.5,0.3c0.499,0.101,0.998,0.202,1.5,0.3
			l-19.95,20.1H546.295z M546.295,85.35l0.6,0.75l1.2-1.2l-0.6-0.75L546.295,85.35z M548.095,89.85l-0.6-0.6l-1.2,1.2l0.6,0.6
			L548.095,89.85z M548.095,94.95l-0.6-0.6l-1.2,1.2l0.6,0.6L548.095,94.95z M548.095,100.05l-0.6-0.6l-1.2,1.2l0.6,0.6
			L548.095,100.05z M550.645,87.45l-0.6-0.75l-1.2,1.2l0.6,0.6L550.645,87.45z M550.645,92.4l-0.6-0.6l-1.2,1.2l0.6,0.6
			L550.645,92.4z M550.645,97.5l-0.6-0.6l-1.2,1.2l0.6,0.6L550.645,97.5z M550.645,102.6l-0.6-0.6l-1.2,1.2l0.6,0.6L550.645,102.6z
			 M551.395,20.7l19.65-19.8c1.2,0.3,2.149,0.651,2.85,1.05l-18.75,18.75H551.395z M553.194,84.9l-0.6-0.75l-1.2,1.2l0.601,0.75
			L553.194,84.9z M553.194,89.85l-0.6-0.6l-1.2,1.2l0.601,0.6L553.194,89.85z M553.194,94.95l-0.6-0.6l-1.2,1.2l0.601,0.6
			L553.194,94.95z M553.194,100.05l-0.6-0.6l-1.2,1.2l0.601,0.6L553.194,100.05z M555.745,87.45l-0.75-0.75l-1.051,1.2l0.601,0.6
			L555.745,87.45z M555.745,92.4l-0.75-0.6l-1.051,1.2l0.601,0.6L555.745,92.4z M555.745,97.5l-0.75-0.6l-1.051,1.2l0.601,0.6
			L555.745,97.5z M555.745,102.6l-0.75-0.6l-1.051,1.2l0.601,0.6L555.745,102.6z M558.295,84.9l-0.75-0.75l-1.2,1.2l0.75,0.75
			L558.295,84.9z M558.295,89.85l-0.75-0.6l-1.2,1.2l0.75,0.6L558.295,89.85z M558.295,94.95l-0.75-0.6l-1.2,1.2l0.75,0.6
			L558.295,94.95z M558.295,100.05l-0.75-0.6l-1.2,1.2l0.75,0.6L558.295,100.05z M556.495,20.7l18.3-18.45
			c0.499,0.202,0.949,0.401,1.35,0.6c0.398,0.202,0.8,0.401,1.2,0.6l-17.25,17.25H556.495z M560.845,87.45l-0.75-0.75l-1.2,1.2
			l0.75,0.6L560.845,87.45z M560.845,92.4l-0.75-0.6l-1.2,1.2l0.75,0.6L560.845,92.4z M560.845,97.5l-0.75-0.6l-1.2,1.2l0.75,0.6
			L560.845,97.5z M560.845,102.6l-0.75-0.6l-1.2,1.2l0.75,0.6L560.845,102.6z M561.444,20.7l16.801-16.65
			c0.398,0.202,0.773,0.426,1.125,0.675c0.349,0.251,0.724,0.525,1.125,0.825L564.895,21c-1.001-0.199-1.852-0.3-2.55-0.3H561.444z
			 M568.345,22.65c-0.4-0.3-0.775-0.549-1.125-0.75c-0.352-0.199-0.775-0.398-1.275-0.6L581.245,6c0.398,0.3,0.75,0.6,1.05,0.9
			c0.3,0.3,0.649,0.6,1.05,0.9L568.345,22.65z M566.395,82.8c0.601-0.099,1.2-0.398,1.8-0.9l15,15c-0.4,0.201-0.899,0.6-1.5,1.2
			L566.395,82.8z M570.895,25.2c-0.4-0.698-1.001-1.35-1.8-1.95l14.85-14.85c0.398,0.3,0.75,0.6,1.051,0.9
			c0.3,0.3,0.6,0.6,0.899,0.9L570.895,25.2z M569.545,80.85c0.6-0.6,0.998-1.05,1.2-1.35l15,14.85l-1.351,1.35L569.545,80.85z
			 M572.545,28.65c-0.202-0.5-0.375-0.949-0.525-1.35c-0.149-0.398-0.325-0.849-0.524-1.35l15-15c0.3,0.401,0.574,0.75,0.824,1.05
			c0.249,0.3,0.525,0.652,0.825,1.05L572.545,28.65z M571.645,78c0.3-0.698,0.549-1.35,0.75-1.95l15.601,15.45
			c-0.202,0.3-0.401,0.577-0.601,0.825c-0.201,0.251-0.4,0.476-0.6,0.675L571.645,78z M593.694,29.1
			c0.099,0.401,0.15,1.102,0.15,2.1v5.25h-21V31.2c0-0.6-0.052-1.05-0.15-1.35l15.9-15.9c0.3,0.401,0.574,0.776,0.825,1.125
			c0.248,0.352,0.474,0.727,0.675,1.125l-15,15h1.35l14.101-14.1c0.199,0.501,0.375,0.926,0.524,1.275
			c0.15,0.352,0.324,0.776,0.525,1.275l-11.4,11.55h1.2l10.65-10.5c0.199,0.501,0.349,0.975,0.45,1.425
			c0.098,0.45,0.248,0.926,0.449,1.425l-7.8,7.65h1.351l6.6-6.6c0.199,0.802,0.398,1.901,0.6,3.3l-3.449,3.3h1.35L593.694,29.1z
			 M574.495,67.95l17.1,16.95c-0.201,0.501-0.502,1.15-0.9,1.95L572.845,69v-1.05H574.495z M572.845,71.4l17.1,16.95
			c-0.201,0.3-0.375,0.6-0.524,0.9c-0.15,0.3-0.326,0.6-0.525,0.9l-16.05-16.2V73.2V71.4z M579.595,67.95l13.2,13.2
			c-0.202,0.801-0.401,1.5-0.601,2.1l-15.3-15.3H579.595z M584.694,67.95l8.851,9c0,0.501-0.101,1.251-0.3,2.25l-11.25-11.25
			H584.694z M589.795,67.95l4.05,4.05v1.2v1.5l-6.75-6.75H589.795z M592.194,67.95h1.65v1.65L592.194,67.95z"/>
		<path fill="#FEE300" d="M633.744,20.7v21.75l-21,21V59.7l18-18h-1.35l-16.65,16.65V54.6l12.9-12.9h-1.351l-11.55,11.55V49.5
			l7.8-7.8h-1.35l-6.45,6.45V44.4l2.7-2.7h-1.2l-1.5,1.5V20.7l-0.004-21h21L633.744,20.7z M633.74,104.7h-21l0.004-21v-3.75l21-21
			v3.75l-21,21h0.9l0.149,0.3l19.95-19.95v3.75l-15.9,15.9h0.75l0.301,0.3l14.85-14.85v3.75l-10.8,10.8h0.75l0.3,0.3l9.75-9.75V78
			l-5.7,5.7h0.75l0.3,0.3l4.65-4.65v3.75l-0.6,0.6h0.596 M633.744,43.8v3.75l-21,21V64.8L633.744,43.8z M612.744,73.65V69.9l21-21
			v3.75L612.744,73.65z M612.744,78.6v-3.75l21-21v3.75L612.744,78.6z M613.794,89.1l1.2-1.2l-0.6-0.75l-1.2,1.2L613.794,89.1z
			 M613.794,94.05l1.2-1.05l-0.6-0.75l-1.2,1.2L613.794,94.05z M613.794,99.15l1.2-1.2l-0.6-0.6l-1.2,1.2L613.794,99.15z
			 M613.794,104.25l1.2-1.2l-0.6-0.6l-1.2,1.2L613.794,104.25z M616.344,86.55l1.2-1.2l-0.6-0.75l-1.2,1.2L616.344,86.55z
			 M616.344,91.65l1.2-1.2l-0.6-0.75l-1.2,1.2L616.344,91.65z M616.344,96.6l1.2-1.2l-0.6-0.6l-1.2,1.2L616.344,96.6z
			 M616.344,101.7l1.2-1.2l-0.6-0.6l-1.2,1.2L616.344,101.7z M618.895,89.1l1.199-1.2l-0.6-0.75l-1.2,1.2L618.895,89.1z
			 M618.895,94.05l1.199-1.05l-0.6-0.75l-1.2,1.2L618.895,94.05z M618.895,99.15l1.199-1.2l-0.6-0.6l-1.2,1.2L618.895,99.15z
			 M618.895,104.25l1.199-1.2l-0.6-0.6l-1.2,1.2L618.895,104.25z M621.444,86.55l1.2-1.2l-0.601-0.75l-1.2,1.2L621.444,86.55z
			 M621.444,91.65l1.2-1.2l-0.601-0.75l-1.2,1.2L621.444,91.65z M621.444,96.6l1.2-1.2l-0.601-0.6l-1.2,1.2L621.444,96.6z
			 M621.444,101.7l1.2-1.2l-0.601-0.6l-1.2,1.2L621.444,101.7z M623.994,89.1l1.2-1.2l-0.601-0.75l-1.199,1.2L623.994,89.1z
			 M623.994,94.05l1.2-1.05l-0.601-0.75l-1.199,1.2L623.994,94.05z M623.994,99.15l1.2-1.2l-0.601-0.6l-1.199,1.2L623.994,99.15z
			 M623.994,104.25l1.2-1.2l-0.601-0.6l-1.199,1.2L623.994,104.25z M626.544,86.55l1.2-1.2l-0.75-0.75l-1.05,1.2L626.544,86.55z
			 M626.544,91.65l1.2-1.2l-0.75-0.75l-1.05,1.2L626.544,91.65z M626.544,96.6l1.2-1.2l-0.75-0.6l-1.05,1.2L626.544,96.6z
			 M626.544,101.7l1.2-1.2l-0.75-0.6l-1.05,1.2L626.544,101.7z M629.094,89.1l1.2-1.2l-0.75-0.75l-1.2,1.2L629.094,89.1z
			 M629.094,94.05l1.2-1.05l-0.75-0.75l-1.2,1.2L629.094,94.05z M629.094,99.15l1.2-1.2l-0.75-0.6l-1.2,1.2L629.094,99.15z
			 M629.094,104.25l1.2-1.2l-0.75-0.6l-1.2,1.2L629.094,104.25z M631.645,86.55l1.199-1.2l-0.75-0.75l-1.199,1.2L631.645,86.55z
			 M631.645,91.65l1.199-1.2l-0.75-0.75l-1.199,1.2L631.645,91.65z M631.645,96.6l1.199-1.2l-0.75-0.6l-1.199,1.2L631.645,96.6z
			 M631.645,101.7l1.199-1.2l-0.75-0.6l-1.199,1.2L631.645,101.7z"/>
		<line fill="#FEE300" x1="489.896" y1="24.45" x2="489.896" y2="27.15"/>
	</g>
	<polygon display="none" fill="none" stroke="#020202" stroke-width="0.1" stroke-miterlimit="10" points="392.946,104.357 
		392.196,103.607 393.396,102.557 394.146,103.157 	"/>
	<polygon fill="#FEE300" points="358.271,42.525 342.971,57.825 344.321,60.225 359.771,44.925 	"/>
	<polygon fill="#FEE300" points="356.471,39.375 341.021,54.525 342.521,57.075 357.821,41.775 	"/>
</g>
<g id="Layer_2" display="none">
</g>
</svg>
